<svg width="1227" height="700" viewBox="0 0 1227 700" fill="none" xmlns="http://www.w3.org/2000/svg">
<g opacity="0.2">
<path d="M866.091 153.903C900.397 96.0337 960.246 43.2139 1059.65 43.214" stroke="#B4B4B4" stroke-width="8" stroke-linecap="round" stroke-linejoin="round"/>
<path d="M806.903 19.8553C813.986 70.04 814.947 170.024 831.192 191.674C856.042 224.791 881.772 190.907 947.078 144.398C1010.54 99.2019 1030.69 97.8653 1109.45 84.2519" stroke="#B4B4B4" stroke-width="8" stroke-linecap="round" stroke-linejoin="round"/>
<path d="M619.464 196.58C604.295 169.79 579.911 99.1339 603.73 30.8342C633.503 -54.5403 696.513 -119.784 768.734 -79.5591C826.702 -47.272 839.297 23.938 842.448 31.6275" stroke="#B4B4B4" stroke-width="8" stroke-linecap="round" stroke-linejoin="round"/>
<path d="M717.538 119.69C731.393 199.396 750.364 372.05 621.557 487.478C492.75 602.906 481.677 685.406 492.242 712.228" stroke="#B4B4B4" stroke-width="8" stroke-linecap="round" stroke-linejoin="round"/>
<path d="M471.432 577.108C462.017 545.939 477.337 512.851 512.566 501.515" stroke="#B4B4B4" stroke-width="8" stroke-linecap="round" stroke-linejoin="round"/>
<path d="M556.636 484.071C592.915 449.55 666.573 360.716 670.981 281.546C676.489 182.582 631.367 2.79513 710.026 2.79512C776.292 2.79512 771.397 213.457 790.104 251.226C812.878 297.207 846.828 287.639 913.663 231.623C999.35 159.807 1032.12 148.755 1099.21 134.986" stroke="#B4B4B4" stroke-width="8" stroke-linecap="round" stroke-linejoin="round"/>
<path d="M764.412 308.402C777.12 332.116 828.565 364.874 872.322 331.356C927.019 289.458 1012.37 165.89 1191.28 210.226" stroke="#B4B4B4" stroke-width="8" stroke-linecap="round" stroke-linejoin="round"/>
<path d="M805.203 861.747C805.202 810.858 831.214 770.562 842.445 756.932C928.25 652.801 1115.88 638.34 1205.04 809.423" stroke="#B4B4B4" stroke-width="8" stroke-linecap="round" stroke-linejoin="round"/>
<path d="M1127.57 498.791C1164.15 534.73 1212.96 615.371 1132.96 645.171C1054.24 674.497 1006.42 537.355 865.894 677.249" stroke="#B4B4B4" stroke-width="8" stroke-linecap="round" stroke-linejoin="round"/>
<path d="M916.98 1020.8C870.101 992.485 860.56 954.335 851.434 899.827C840.026 831.693 921.429 647.382 1114.2 786.626C1132.63 801.848 1148.82 816.464 1182.06 884.827" stroke="#B4B4B4" stroke-width="8" stroke-linecap="round" stroke-linejoin="round"/>
<path d="M1048.2 990.613C1015.37 1001.66 946.736 996.741 920.314 942.577C887.286 874.872 931.548 797.165 1022.61 806.304C1095.46 813.614 1114.69 857.755 1138.76 914.704C1163.61 973.492 1268.42 1030.74 1370.93 914.704" stroke="#B4B4B4" stroke-width="8" stroke-linecap="round" stroke-linejoin="round"/>
<path d="M1048.2 0.551591C1015.37 11.5995 946.736 6.67991 920.314 -47.4841C887.286 -115.189 931.548 -192.896 1022.61 -183.757C1095.46 -176.447 1097.35 -121.268 1138.76 -75.3575C1169.45 -41.3373 1188.85 -4.30906 1265.98 -15.2492" stroke="#B4B4B4" stroke-width="8" stroke-linecap="round" stroke-linejoin="round"/>
<path d="M98.4154 -297.425C131.427 -306.069 382.463 -219.936 11.9784 46.3478" stroke="#B4B4B4" stroke-width="8" stroke-linecap="round" stroke-linejoin="round"/>
<path d="M1127.83 410.937C1204.32 442.535 1272.23 349.126 1312.37 298.492C1352.52 247.859 1446.36 104.539 1552.46 252.7" stroke="#B4B4B4" stroke-width="8" stroke-linecap="round" stroke-linejoin="round"/>
<path d="M137.763 410.937C214.256 442.535 282.166 349.126 322.312 298.492C362.457 247.859 456.301 104.539 562.398 252.7" stroke="#B4B4B4" stroke-width="8" stroke-linecap="round" stroke-linejoin="round"/>
<path d="M1190.19 460.673C1287.86 426.467 1342.01 367.523 1357.72 322.557C1377.62 265.59 1423.4 229.714 1458.66 239.819C1534.96 261.686 1541.37 369.507 1455.49 408.023C1369.6 446.538 1374.59 389.835 1208.5 552.254" stroke="#B4B4B4" stroke-width="8" stroke-linecap="round" stroke-linejoin="round"/>
<path d="M200.127 460.673C297.796 426.466 351.947 367.523 367.654 322.556C387.554 265.59 434.906 237.408 470.166 247.513C546.469 269.38 551.311 369.507 465.426 408.022C379.541 446.538 384.525 389.834 218.442 552.254" stroke="#B4B4B4" stroke-width="8" stroke-linecap="round" stroke-linejoin="round"/>
<path d="M1606.8 269.626C1614.05 306.821 1597.01 397.236 1470.84 461.336C1313.12 541.461 1206.92 593.836 1206.92 673.932" stroke="#B4B4B4" stroke-width="8" stroke-linecap="round" stroke-linejoin="round"/>
<path d="M616.735 269.626C623.989 306.821 606.954 397.236 480.778 461.336C323.059 541.461 216.859 593.836 216.859 673.932" stroke="#B4B4B4" stroke-width="8" stroke-linecap="round" stroke-linejoin="round"/>
<path d="M420.811 310.184C429.276 292.858 457.097 288.777 467.047 306.174C479.484 327.921 482.492 371.716 396.852 379.389" stroke="#B4B4B4" stroke-width="8" stroke-linecap="round" stroke-linejoin="round"/>
<path d="M649.578 710.923C672.778 705.633 729.26 678.828 769.59 613.919C809.919 549.01 856.781 537.388 875.171 539.69" stroke="#B4B4B4" stroke-width="8" stroke-linecap="round" stroke-linejoin="round"/>
<path d="M627.512 782.365C660.738 782.311 742.065 762.839 801.565 685.379C875.941 588.553 933.069 515.771 1080.79 577.402" stroke="#B4B4B4" stroke-width="8" stroke-linecap="round" stroke-linejoin="round"/>
<path d="M538.271 703.865C564.577 625.719 615.337 499.289 748.722 455.789C882.106 412.289 1010.32 482.101 1057.75 522.444" stroke="#B4B4B4" stroke-width="8" stroke-linecap="round" stroke-linejoin="round"/>
<path d="M778.916 523.592C782.639 515.625 808.216 496.611 826.854 493.224" stroke="#B4B4B4" stroke-width="8" stroke-linecap="round" stroke-linejoin="round"/>
<path d="M855.902 -56.1343C865.403 -53.4331 915.206 -8.46644 890.626 39.7057" stroke="#B4B4B4" stroke-width="8" stroke-linecap="round" stroke-linejoin="round"/>
<path d="M424.517 7.7504C409.535 26.9836 393.233 54.8187 338.389 62.2516" stroke="#B4B4B4" stroke-width="8" stroke-linecap="round" stroke-linejoin="round"/>
<path d="M664.834 634.197C684.918 625.475 709.166 620.024 750.402 553.293" stroke="#B4B4B4" stroke-width="8" stroke-linecap="round" stroke-linejoin="round"/>
<path d="M732.293 411.23C761.069 394.718 841.82 371.127 934.617 408.865C1027.41 446.604 1066.33 403.07 1076.08 371.766C1069.33 408.269 1067.38 477.268 1113.57 461.243" stroke="#B4B4B4" stroke-width="8" stroke-linecap="round" stroke-linejoin="round"/>
<path d="M914.356 355.153C951.087 344.341 972.671 276.72 1005.89 276.72C1043.5 276.72 970 360.181 1005.89 365.33C1050.74 371.766 1094.44 220.881 1127.12 260.978C1147.27 285.708 1092.17 340.529 1134.16 359.526C1161.4 371.852 1220.48 332.757 1241.22 273.106" stroke="#B4B4B4" stroke-width="8" stroke-linecap="round" stroke-linejoin="round"/>
<path d="M1094.45 -48.5151C1072.52 38.3628 1162.61 14.7994 1162.61 108.162" stroke="#B4B4B4" stroke-width="8" stroke-linecap="round" stroke-linejoin="round"/>
<path d="M1143.11 -8.71484C1155.29 10.7399 1175.29 33.1412 1221.08 30.2441" stroke="#B4B4B4" stroke-width="8" stroke-linecap="round" stroke-linejoin="round"/>
<path d="M716.146 528.444C677.472 558.9 652.162 576.063 605.457 663.735C562.977 743.478 564.115 829.937 612.338 843.432C660.562 856.927 672.723 832.838 694.117 822.69C715.512 812.541 749.369 808.744 762.036 850.362" stroke="#B4B4B4" stroke-width="8" stroke-linecap="round" stroke-linejoin="round"/>
<path d="M399.362 -248.003C413.091 -295.098 482.784 -321.718 529.482 -262.724C643.023 -119.282 456.717 93.0723 563.924 191.327" stroke="#B4B4B4" stroke-width="8" stroke-linecap="round" stroke-linejoin="round"/>
<path d="M210.396 1064.78C271.362 1113.12 369.229 1125.4 437.94 1064.78C503.276 1007.13 477.63 926.154 459.77 842.986C447.971 788.037 454.11 697.589 450.717 659.279C443.781 580.966 391.11 566.362 358.537 591.609C325.964 616.855 274.976 665.467 245.621 837.441C238.971 879.882 228.865 934.033 259.333 943.427C289.679 952.783 342.943 939.418 353.091 848.431" stroke="#B4B4B4" stroke-width="8" stroke-linecap="round" stroke-linejoin="round"/>
<path d="M210.396 74.7171C271.362 123.061 369.229 135.338 437.94 74.7171C503.276 17.0725 477.63 -63.9079 459.77 -147.076C447.971 -202.025 454.11 -292.473 450.717 -330.783C443.781 -409.096 391.11 -423.7 358.537 -398.453C325.964 -373.207 274.976 -324.595 245.621 -152.621C238.971 -110.18 228.865 -56.0291 259.333 -46.6352C289.679 -37.2791 342.943 -50.6443 353.091 -141.631" stroke="#B4B4B4" stroke-width="8" stroke-linecap="round" stroke-linejoin="round"/>
<path d="M269.975 1008.82C423.187 1025.5 398.882 887.984 398.882 850.412C398.882 812.839 400.862 725.763 405.465 686.061C410.069 646.36 370.268 621.807 338.833 699.328C307.399 776.85 309.133 853.134 290.866 880.559" stroke="#B4B4B4" stroke-width="8" stroke-linecap="round" stroke-linejoin="round"/>
<path d="M269.975 18.7594C423.187 35.4419 398.882 -102.078 398.882 -139.65C398.882 -177.223 400.862 -264.299 405.465 -304.001C410.069 -343.702 370.268 -368.256 338.833 -290.734C307.399 -213.212 309.133 -136.928 290.866 -109.503" stroke="#B4B4B4" stroke-width="8" stroke-linecap="round" stroke-linejoin="round"/>
<path d="M1200.46 1064.78C1261.42 1113.12 1344.64 1159.06 1434.88 1085.6C1485.87 1044.09 1460.46 1033.7 1440.78 853.579C1431.39 767.642 1440.78 697.739 1440.78 659.28C1440.78 589.876 1381.17 566.362 1348.6 591.609C1316.02 616.855 1265.04 665.467 1235.68 837.441C1229.03 879.882 1218.93 934.033 1249.39 943.427C1279.74 952.783 1318.94 944.566 1329.09 853.579" stroke="#B4B4B4" stroke-width="8" stroke-linecap="round" stroke-linejoin="round"/>
<path d="M1260.04 1008.82C1439.78 1099.06 1380.13 920.903 1388.94 850.411C1397.75 779.919 1400.97 731.356 1405.58 691.655C1410.18 651.953 1379.78 636.137 1343.1 671.16C1306.42 706.184 1299.19 853.134 1280.93 880.558" stroke="#B4B4B4" stroke-width="8" stroke-linecap="round" stroke-linejoin="round"/>
<path d="M1200.46 74.7182C1261.42 123.062 1344.64 169.001 1434.88 95.5388C1485.87 54.0278 1460.46 43.6378 1440.78 -136.482C1431.39 -222.42 1440.78 -292.322 1440.78 -330.781C1440.78 -400.185 1381.17 -423.699 1348.6 -398.452C1316.02 -373.206 1265.04 -324.594 1235.68 -152.62C1229.03 -110.179 1218.93 -56.028 1249.39 -46.6341C1279.74 -37.278 1318.94 -45.4955 1329.09 -136.482" stroke="#B4B4B4" stroke-width="8" stroke-linecap="round" stroke-linejoin="round"/>
<path d="M1260.04 18.7594C1439.78 109.003 1380.13 -69.1581 1388.94 -139.65C1397.75 -210.143 1400.97 -258.705 1405.58 -298.407C1410.18 -338.108 1379.78 -353.924 1343.1 -318.901C1306.42 -283.878 1299.19 -136.928 1280.93 -109.503" stroke="#B4B4B4" stroke-width="8" stroke-linecap="round" stroke-linejoin="round"/>
<path d="M302.994 242.662C273.425 237.005 235.522 214.071 235.522 173.258C235.522 145.658 279.178 169.572 324.874 173.258C383.783 178.011 455.612 150.338 487.046 99.2513" stroke="#B4B4B4" stroke-width="8" stroke-linecap="round" stroke-linejoin="round"/>
<path d="M1293.05 242.662C1263.49 237.006 1225.58 214.071 1225.58 173.259C1225.58 145.658 1269.24 169.572 1314.94 173.259C1373.84 178.011 1477.11 138.111 1477.11 99.2516" stroke="#B4B4B4" stroke-width="8" stroke-linecap="round" stroke-linejoin="round"/>
<circle cx="920.99" cy="510.275" r="9.31632" fill="white" stroke="#B4B4B4" stroke-width="8"/>
<circle cx="1126.92" cy="594.331" r="9.31632" fill="white" stroke="#B4B4B4" stroke-width="8"/>
<circle cx="709.216" cy="69.599" r="9.31632" fill="white" stroke="#B4B4B4" stroke-width="8"/>
<circle cx="562.291" cy="300.283" r="9.31632" fill="white" stroke="#B4B4B4" stroke-width="8"/>
<circle cx="416.059" cy="539.977" r="9.31632" fill="white" stroke="#B4B4B4" stroke-width="8"/>
<circle cx="746.64" cy="358.598" r="9.31632" fill="white" stroke="#B4B4B4" stroke-width="8"/>
<circle cx="1160.88" cy="144.546" r="9.31632" fill="white" stroke="#B4B4B4" stroke-width="8"/>
<circle cx="1181.28" cy="275.136" r="9.31632" fill="white" stroke="#B4B4B4" stroke-width="8"/>
<circle cx="866.735" cy="76.7279" r="9.31632" fill="white" stroke="#B4B4B4" stroke-width="8"/>
</g>
</svg>
